<mxfile host="Electron" agent="Mozilla/5.0 (Windows NT 10.0; Win64; x64) AppleWebKit/537.36 (KHTML, like Gecko) draw.io/24.7.17 Chrome/128.0.6613.36 Electron/32.0.1 Safari/537.36" version="24.7.17">
  <diagram id="R2lEEEUBdFMjLlhIrx00" name="Page-1">
    <mxGraphModel dx="1246" dy="533" grid="1" gridSize="10" guides="1" tooltips="1" connect="1" arrows="1" fold="1" page="1" pageScale="1" pageWidth="850" pageHeight="1100" math="0" shadow="0" extFonts="Permanent Marker^https://fonts.googleapis.com/css?family=Permanent+Marker">
      <root>
        <mxCell id="0" />
        <mxCell id="1" parent="0" />
        <mxCell id="Tp2NJ9qw89dSHKwxHibO-3" value="User" style="swimlane;fontStyle=0;childLayout=stackLayout;horizontal=1;startSize=26;horizontalStack=0;resizeParent=1;resizeParentMax=0;resizeLast=0;collapsible=1;marginBottom=0;align=center;fontSize=15;" parent="1" vertex="1">
          <mxGeometry x="250" y="10" width="160" height="128" as="geometry" />
        </mxCell>
        <mxCell id="Tp2NJ9qw89dSHKwxHibO-4" value="User_id :Integer" style="text;strokeColor=none;fillColor=none;spacingLeft=4;spacingRight=4;overflow=hidden;rotatable=0;points=[[0,0.5],[1,0.5]];portConstraint=eastwest;fontSize=15;whiteSpace=wrap;html=1;" parent="Tp2NJ9qw89dSHKwxHibO-3" vertex="1">
          <mxGeometry y="26" width="160" height="24" as="geometry" />
        </mxCell>
        <mxCell id="Tp2NJ9qw89dSHKwxHibO-5" value="Name : String&amp;nbsp;" style="text;strokeColor=none;fillColor=none;spacingLeft=4;spacingRight=4;overflow=hidden;rotatable=0;points=[[0,0.5],[1,0.5]];portConstraint=eastwest;fontSize=15;whiteSpace=wrap;html=1;" parent="Tp2NJ9qw89dSHKwxHibO-3" vertex="1">
          <mxGeometry y="50" width="160" height="24" as="geometry" />
        </mxCell>
        <mxCell id="Tp2NJ9qw89dSHKwxHibO-6" value="Phone : String&amp;nbsp;&lt;div style=&quot;font-size: 15px;&quot;&gt;Email : String&lt;/div&gt;&lt;div style=&quot;font-size: 15px;&quot;&gt;PreferencesID : integer&lt;span style=&quot;background-color: initial; font-size: 15px;&quot;&gt;&amp;nbsp;&lt;/span&gt;&lt;/div&gt;&lt;div style=&quot;font-size: 15px;&quot;&gt;&lt;br style=&quot;font-size: 15px;&quot;&gt;&lt;/div&gt;" style="text;strokeColor=none;fillColor=none;spacingLeft=4;spacingRight=4;overflow=hidden;rotatable=0;points=[[0,0.5],[1,0.5]];portConstraint=eastwest;fontSize=15;whiteSpace=wrap;html=1;" parent="Tp2NJ9qw89dSHKwxHibO-3" vertex="1">
          <mxGeometry y="74" width="160" height="54" as="geometry" />
        </mxCell>
        <mxCell id="Tp2NJ9qw89dSHKwxHibO-13" value="Location" style="swimlane;fontStyle=0;childLayout=stackLayout;horizontal=1;startSize=26;horizontalStack=0;resizeParent=1;resizeParentMax=0;resizeLast=0;collapsible=1;marginBottom=0;align=center;fontSize=15;" parent="1" vertex="1">
          <mxGeometry x="70" y="230" width="160" height="124" as="geometry" />
        </mxCell>
        <mxCell id="Tp2NJ9qw89dSHKwxHibO-14" value="LocationID :Integer" style="text;strokeColor=none;fillColor=none;spacingLeft=4;spacingRight=4;overflow=hidden;rotatable=0;points=[[0,0.5],[1,0.5]];portConstraint=eastwest;fontSize=15;whiteSpace=wrap;html=1;" parent="Tp2NJ9qw89dSHKwxHibO-13" vertex="1">
          <mxGeometry y="26" width="160" height="30" as="geometry" />
        </mxCell>
        <mxCell id="Tp2NJ9qw89dSHKwxHibO-15" value="City : String&amp;nbsp;" style="text;strokeColor=none;fillColor=none;spacingLeft=4;spacingRight=4;overflow=hidden;rotatable=0;points=[[0,0.5],[1,0.5]];portConstraint=eastwest;fontSize=15;whiteSpace=wrap;html=1;" parent="Tp2NJ9qw89dSHKwxHibO-13" vertex="1">
          <mxGeometry y="56" width="160" height="24" as="geometry" />
        </mxCell>
        <mxCell id="Tp2NJ9qw89dSHKwxHibO-16" value="Country : Latitude&amp;nbsp;&lt;div style=&quot;font-size: 15px;&quot;&gt;Longitude : Float&amp;nbsp;&lt;/div&gt;&lt;div style=&quot;font-size: 15px;&quot;&gt;&lt;br style=&quot;font-size: 15px;&quot;&gt;&lt;/div&gt;" style="text;strokeColor=none;fillColor=none;spacingLeft=4;spacingRight=4;overflow=hidden;rotatable=0;points=[[0,0.5],[1,0.5]];portConstraint=eastwest;fontSize=15;whiteSpace=wrap;html=1;" parent="Tp2NJ9qw89dSHKwxHibO-13" vertex="1">
          <mxGeometry y="80" width="160" height="44" as="geometry" />
        </mxCell>
        <mxCell id="Tp2NJ9qw89dSHKwxHibO-17" value="Preferences" style="swimlane;fontStyle=0;childLayout=stackLayout;horizontal=1;startSize=26;horizontalStack=0;resizeParent=1;resizeParentMax=0;resizeLast=0;collapsible=1;marginBottom=0;align=center;fontSize=15;" parent="1" vertex="1">
          <mxGeometry x="440" y="243" width="190" height="150" as="geometry" />
        </mxCell>
        <mxCell id="Tp2NJ9qw89dSHKwxHibO-18" value="PreferencesID : Integer&amp;nbsp;" style="text;strokeColor=none;fillColor=none;spacingLeft=4;spacingRight=4;overflow=hidden;rotatable=0;points=[[0,0.5],[1,0.5]];portConstraint=eastwest;fontSize=15;whiteSpace=wrap;html=1;" parent="Tp2NJ9qw89dSHKwxHibO-17" vertex="1">
          <mxGeometry y="26" width="190" height="24" as="geometry" />
        </mxCell>
        <mxCell id="Tp2NJ9qw89dSHKwxHibO-19" value="CyclonesAlerts : Boolean" style="text;strokeColor=none;fillColor=none;spacingLeft=4;spacingRight=4;overflow=hidden;rotatable=0;points=[[0,0.5],[1,0.5]];portConstraint=eastwest;fontSize=15;whiteSpace=wrap;html=1;" parent="Tp2NJ9qw89dSHKwxHibO-17" vertex="1">
          <mxGeometry y="50" width="190" height="20" as="geometry" />
        </mxCell>
        <mxCell id="Tp2NJ9qw89dSHKwxHibO-20" value="FloodAlerts : Boolean&amp;nbsp;&lt;div style=&quot;font-size: 15px;&quot;&gt;TornadoAlerts : Boolean&lt;/div&gt;&lt;div style=&quot;font-size: 15px;&quot;&gt;RainAlerts : Boolean&amp;nbsp;&lt;/div&gt;&lt;div style=&quot;font-size: 15px;&quot;&gt;AlertSeverity : String&amp;nbsp;&lt;/div&gt;" style="text;strokeColor=none;fillColor=none;spacingLeft=4;spacingRight=4;overflow=hidden;rotatable=0;points=[[0,0.5],[1,0.5]];portConstraint=eastwest;fontSize=15;whiteSpace=wrap;html=1;" parent="Tp2NJ9qw89dSHKwxHibO-17" vertex="1">
          <mxGeometry y="70" width="190" height="80" as="geometry" />
        </mxCell>
        <mxCell id="Tp2NJ9qw89dSHKwxHibO-21" value="WeatherData" style="swimlane;fontStyle=0;childLayout=stackLayout;horizontal=1;startSize=26;horizontalStack=0;resizeParent=1;resizeParentMax=0;resizeLast=0;collapsible=1;marginBottom=0;align=center;fontSize=15;" parent="1" vertex="1">
          <mxGeometry x="71" y="430" width="160" height="150" as="geometry" />
        </mxCell>
        <mxCell id="Tp2NJ9qw89dSHKwxHibO-22" value="WeatherDataID : Integer" style="text;strokeColor=none;fillColor=none;spacingLeft=4;spacingRight=4;overflow=hidden;rotatable=0;points=[[0,0.5],[1,0.5]];portConstraint=eastwest;fontSize=15;whiteSpace=wrap;html=1;" parent="Tp2NJ9qw89dSHKwxHibO-21" vertex="1">
          <mxGeometry y="26" width="160" height="24" as="geometry" />
        </mxCell>
        <mxCell id="Tp2NJ9qw89dSHKwxHibO-23" value="Teperature : Float&amp;nbsp;" style="text;strokeColor=none;fillColor=none;spacingLeft=4;spacingRight=4;overflow=hidden;rotatable=0;points=[[0,0.5],[1,0.5]];portConstraint=eastwest;fontSize=15;whiteSpace=wrap;html=1;" parent="Tp2NJ9qw89dSHKwxHibO-21" vertex="1">
          <mxGeometry y="50" width="160" height="20" as="geometry" />
        </mxCell>
        <mxCell id="Tp2NJ9qw89dSHKwxHibO-24" value="Humidity : Float&amp;nbsp;&lt;div style=&quot;font-size: 15px;&quot;&gt;WindSpeed : Float&amp;nbsp;&lt;/div&gt;&lt;div style=&quot;font-size: 15px;&quot;&gt;Rainfall : Float&amp;nbsp;&lt;/div&gt;&lt;div style=&quot;font-size: 15px;&quot;&gt;DateTime : DateTime&amp;nbsp;&lt;/div&gt;" style="text;strokeColor=none;fillColor=none;spacingLeft=4;spacingRight=4;overflow=hidden;rotatable=0;points=[[0,0.5],[1,0.5]];portConstraint=eastwest;fontSize=15;whiteSpace=wrap;html=1;" parent="Tp2NJ9qw89dSHKwxHibO-21" vertex="1">
          <mxGeometry y="70" width="160" height="80" as="geometry" />
        </mxCell>
        <mxCell id="Tp2NJ9qw89dSHKwxHibO-25" value="AlertÂ " style="swimlane;fontStyle=0;childLayout=stackLayout;horizontal=1;startSize=26;horizontalStack=0;resizeParent=1;resizeParentMax=0;resizeLast=0;collapsible=1;marginBottom=0;align=center;fontSize=15;" parent="1" vertex="1">
          <mxGeometry x="70" y="630" width="160" height="130" as="geometry" />
        </mxCell>
        <mxCell id="Tp2NJ9qw89dSHKwxHibO-26" value="AlertID : Integer&amp;nbsp;" style="text;strokeColor=none;fillColor=none;spacingLeft=4;spacingRight=4;overflow=hidden;rotatable=0;points=[[0,0.5],[1,0.5]];portConstraint=eastwest;fontSize=15;whiteSpace=wrap;html=1;" parent="Tp2NJ9qw89dSHKwxHibO-25" vertex="1">
          <mxGeometry y="26" width="160" height="24" as="geometry" />
        </mxCell>
        <mxCell id="Tp2NJ9qw89dSHKwxHibO-27" value="Type ; String&amp;nbsp;" style="text;strokeColor=none;fillColor=none;spacingLeft=4;spacingRight=4;overflow=hidden;rotatable=0;points=[[0,0.5],[1,0.5]];portConstraint=eastwest;fontSize=15;whiteSpace=wrap;html=1;" parent="Tp2NJ9qw89dSHKwxHibO-25" vertex="1">
          <mxGeometry y="50" width="160" height="20" as="geometry" />
        </mxCell>
        <mxCell id="Tp2NJ9qw89dSHKwxHibO-28" value="Severity : String&amp;nbsp;&lt;div style=&quot;font-size: 15px;&quot;&gt;Description : String&amp;nbsp;&lt;/div&gt;&lt;div style=&quot;font-size: 15px;&quot;&gt;IssuedAt : DateTime&lt;/div&gt;" style="text;strokeColor=none;fillColor=none;spacingLeft=4;spacingRight=4;overflow=hidden;rotatable=0;points=[[0,0.5],[1,0.5]];portConstraint=eastwest;fontSize=15;whiteSpace=wrap;html=1;" parent="Tp2NJ9qw89dSHKwxHibO-25" vertex="1">
          <mxGeometry y="70" width="160" height="60" as="geometry" />
        </mxCell>
        <mxCell id="Tp2NJ9qw89dSHKwxHibO-29" value="Notification" style="swimlane;fontStyle=0;childLayout=stackLayout;horizontal=1;startSize=26;horizontalStack=0;resizeParent=1;resizeParentMax=0;resizeLast=0;collapsible=1;marginBottom=0;align=center;fontSize=15;" parent="1" vertex="1">
          <mxGeometry x="70" y="830" width="160" height="110" as="geometry" />
        </mxCell>
        <mxCell id="Tp2NJ9qw89dSHKwxHibO-30" value="NotificationID : Integer&amp;nbsp;" style="text;strokeColor=none;fillColor=none;spacingLeft=4;spacingRight=4;overflow=hidden;rotatable=0;points=[[0,0.5],[1,0.5]];portConstraint=eastwest;fontSize=15;whiteSpace=wrap;html=1;" parent="Tp2NJ9qw89dSHKwxHibO-29" vertex="1">
          <mxGeometry y="26" width="160" height="24" as="geometry" />
        </mxCell>
        <mxCell id="Tp2NJ9qw89dSHKwxHibO-31" value="UserID : Integer&amp;nbsp;" style="text;strokeColor=none;fillColor=none;spacingLeft=4;spacingRight=4;overflow=hidden;rotatable=0;points=[[0,0.5],[1,0.5]];portConstraint=eastwest;fontSize=15;whiteSpace=wrap;html=1;" parent="Tp2NJ9qw89dSHKwxHibO-29" vertex="1">
          <mxGeometry y="50" width="160" height="20" as="geometry" />
        </mxCell>
        <mxCell id="Tp2NJ9qw89dSHKwxHibO-32" value="AlertID : Integer&amp;nbsp;&lt;div style=&quot;font-size: 15px;&quot;&gt;SentAt : DateTime&lt;/div&gt;" style="text;strokeColor=none;fillColor=none;spacingLeft=4;spacingRight=4;overflow=hidden;rotatable=0;points=[[0,0.5],[1,0.5]];portConstraint=eastwest;fontSize=15;whiteSpace=wrap;html=1;" parent="Tp2NJ9qw89dSHKwxHibO-29" vertex="1">
          <mxGeometry y="70" width="160" height="40" as="geometry" />
        </mxCell>
        <mxCell id="Tp2NJ9qw89dSHKwxHibO-33" value="" style="edgeStyle=orthogonalEdgeStyle;fontSize=15;html=1;endArrow=ERoneToMany;startArrow=ERmandOne;rounded=0;exitX=0.071;exitY=1;exitDx=0;exitDy=0;exitPerimeter=0;entryX=1;entryY=0;entryDx=0;entryDy=0;" parent="1" source="Tp2NJ9qw89dSHKwxHibO-6" target="Tp2NJ9qw89dSHKwxHibO-13" edge="1">
          <mxGeometry width="100" height="100" relative="1" as="geometry">
            <mxPoint x="230" y="130" as="sourcePoint" />
            <mxPoint x="210" y="80" as="targetPoint" />
          </mxGeometry>
        </mxCell>
        <mxCell id="Tp2NJ9qw89dSHKwxHibO-34" value="" style="edgeStyle=orthogonalEdgeStyle;fontSize=15;html=1;endArrow=ERoneToMany;startArrow=ERmandOne;rounded=0;entryX=0.338;entryY=0.002;entryDx=0;entryDy=0;entryPerimeter=0;exitX=0.767;exitY=1.025;exitDx=0;exitDy=0;exitPerimeter=0;" parent="1" source="Tp2NJ9qw89dSHKwxHibO-6" target="Tp2NJ9qw89dSHKwxHibO-17" edge="1">
          <mxGeometry width="100" height="100" relative="1" as="geometry">
            <mxPoint x="420" y="100" as="sourcePoint" />
            <mxPoint x="370" y="140" as="targetPoint" />
            <Array as="points">
              <mxPoint x="373" y="160" />
              <mxPoint x="370" y="160" />
              <mxPoint x="370" y="170" />
              <mxPoint x="494" y="170" />
            </Array>
          </mxGeometry>
        </mxCell>
        <mxCell id="Tp2NJ9qw89dSHKwxHibO-36" value="" style="edgeStyle=orthogonalEdgeStyle;fontSize=15;html=1;endArrow=ERoneToMany;startArrow=ERmandOne;rounded=0;exitX=0.433;exitY=1.015;exitDx=0;exitDy=0;exitPerimeter=0;entryX=0.25;entryY=0;entryDx=0;entryDy=0;" parent="1" source="Tp2NJ9qw89dSHKwxHibO-16" target="Tp2NJ9qw89dSHKwxHibO-21" edge="1">
          <mxGeometry width="100" height="100" relative="1" as="geometry">
            <mxPoint x="150" y="370" as="sourcePoint" />
            <mxPoint x="410" y="460" as="targetPoint" />
            <Array as="points">
              <mxPoint x="139" y="390" />
              <mxPoint x="110" y="390" />
            </Array>
          </mxGeometry>
        </mxCell>
        <mxCell id="Tp2NJ9qw89dSHKwxHibO-37" value="" style="edgeStyle=orthogonalEdgeStyle;fontSize=15;html=1;endArrow=ERoneToMany;startArrow=ERmandOne;rounded=0;exitX=0.431;exitY=1.038;exitDx=0;exitDy=0;exitPerimeter=0;entryX=0.25;entryY=0;entryDx=0;entryDy=0;" parent="1" source="Tp2NJ9qw89dSHKwxHibO-24" target="Tp2NJ9qw89dSHKwxHibO-25" edge="1">
          <mxGeometry width="100" height="100" relative="1" as="geometry">
            <mxPoint x="350" y="760" as="sourcePoint" />
            <mxPoint x="450" y="660" as="targetPoint" />
            <Array as="points">
              <mxPoint x="140" y="600" />
              <mxPoint x="110" y="600" />
            </Array>
          </mxGeometry>
        </mxCell>
        <mxCell id="Tp2NJ9qw89dSHKwxHibO-38" value="" style="edgeStyle=orthogonalEdgeStyle;fontSize=15;html=1;endArrow=ERoneToMany;startArrow=ERmandOne;rounded=0;exitX=0.429;exitY=1.04;exitDx=0;exitDy=0;exitPerimeter=0;" parent="1" source="Tp2NJ9qw89dSHKwxHibO-28" target="Tp2NJ9qw89dSHKwxHibO-29" edge="1">
          <mxGeometry width="100" height="100" relative="1" as="geometry">
            <mxPoint x="360" y="980" as="sourcePoint" />
            <mxPoint x="460" y="880" as="targetPoint" />
            <Array as="points">
              <mxPoint x="139" y="790" />
              <mxPoint x="150" y="790" />
            </Array>
          </mxGeometry>
        </mxCell>
      </root>
    </mxGraphModel>
  </diagram>
</mxfile>
